<svg xmlns="http://www.w3.org/2000/svg" xmlns:xlink="http://www.w3.org/1999/xlink" width="500" zoomAndPan="magnify" viewBox="0 0 375 374.999991" height="500" preserveAspectRatio="xMidYMid meet" version="1.2"><defs><clipPath id="f6b41556e6"><path d="M 8.640625 8.640625 L 366.390625 8.640625 L 366.390625 366.390625 L 8.640625 366.390625 Z M 8.640625 8.640625 "/></clipPath></defs><g id="68b49cf6b8"><path style=" stroke:none;fill-rule:evenodd;fill:#ffffff;fill-opacity:1;" d="M 101.792969 248.449219 L 206.296875 143.945312 C 205.105469 141.59375 204.460938 138.964844 204.460938 136.164062 C 204.460938 126.550781 212.242188 118.746094 221.882812 118.746094 C 231.5 118.746094 239.28125 126.550781 239.28125 136.164062 C 239.28125 145.78125 231.5 153.585938 221.882812 153.585938 C 219.082031 153.585938 216.429688 152.917969 214.078125 151.726562 L 178.316406 187.488281 L 101.792969 264.035156 L 101.792969 290.15625 L 221.882812 290.15625 C 250.109375 290.179688 273.203125 267.058594 273.203125 238.832031 C 273.203125 221.015625 264.011719 205.230469 250.109375 196.011719 L 215.019531 231.101562 C 216.207031 233.457031 216.851562 236.082031 216.851562 238.882812 C 216.851562 248.523438 209.070312 256.304688 199.433594 256.304688 C 189.816406 256.304688 182.035156 248.523438 182.035156 238.882812 C 182.035156 229.269531 189.816406 221.488281 199.433594 221.488281 C 202.230469 221.488281 204.882812 222.132812 207.238281 223.320312 L 239.800781 190.734375 L 258.136719 172.421875 C 267.429688 163.101562 273.203125 150.265625 273.203125 136.164062 C 273.203125 107.914062 250.109375 84.820312 221.882812 84.820312 L 101.792969 84.820312 L 101.792969 140.253906 L 109.105469 132.945312 C 108.4375 131.628906 108.0625 130.144531 108.0625 128.558594 C 108.0625 123.128906 112.449219 118.746094 117.878906 118.746094 C 123.304688 118.746094 127.691406 123.128906 127.691406 128.558594 C 127.691406 133.984375 123.304688 138.371094 117.878906 138.371094 C 116.292969 138.371094 114.804688 138 113.492188 137.332031 L 101.792969 149.050781 L 101.792969 191.03125 L 118.148438 174.652344 L 153.5625 139.238281 C 152.621094 137.332031 152.074219 135.175781 152.074219 132.917969 C 152.074219 125.089844 158.417969 118.746094 166.25 118.746094 C 174.054688 118.746094 180.398438 125.089844 180.398438 132.917969 C 180.398438 140.726562 174.054688 147.070312 166.25 147.070312 C 163.96875 147.070312 161.8125 146.550781 159.90625 145.582031 L 130.8125 174.652344 L 101.792969 203.695312 Z M 101.792969 248.449219 "/><path style=" stroke:none;fill-rule:nonzero;fill:#ffffff;fill-opacity:1;" d="M 207.214844 238.882812 C 207.214844 239.394531 207.164062 239.898438 207.0625 240.402344 C 206.964844 240.902344 206.816406 241.390625 206.621094 241.859375 C 206.425781 242.332031 206.183594 242.78125 205.902344 243.207031 C 205.617188 243.632812 205.296875 244.023438 204.933594 244.386719 C 204.574219 244.746094 204.179688 245.070312 203.753906 245.351562 C 203.328125 245.636719 202.882812 245.875 202.410156 246.070312 C 201.9375 246.269531 201.449219 246.414062 200.949219 246.515625 C 200.449219 246.613281 199.941406 246.664062 199.433594 246.664062 C 198.921875 246.664062 198.414062 246.613281 197.914062 246.515625 C 197.414062 246.414062 196.925781 246.269531 196.453125 246.070312 C 195.980469 245.875 195.535156 245.636719 195.109375 245.351562 C 194.683594 245.070312 194.289062 244.746094 193.929688 244.386719 C 193.566406 244.023438 193.246094 243.632812 192.960938 243.207031 C 192.679688 242.78125 192.4375 242.332031 192.242188 241.859375 C 192.046875 241.390625 191.898438 240.902344 191.800781 240.402344 C 191.699219 239.898438 191.652344 239.394531 191.652344 238.882812 C 191.652344 238.371094 191.699219 237.867188 191.800781 237.363281 C 191.898438 236.863281 192.046875 236.378906 192.242188 235.90625 C 192.4375 235.433594 192.679688 234.984375 192.960938 234.558594 C 193.246094 234.136719 193.566406 233.742188 193.929688 233.382812 C 194.289062 233.019531 194.683594 232.695312 195.109375 232.414062 C 195.535156 232.128906 195.980469 231.890625 196.453125 231.695312 C 196.925781 231.5 197.414062 231.351562 197.914062 231.25 C 198.414062 231.152344 198.921875 231.101562 199.433594 231.101562 C 199.941406 231.101562 200.449219 231.152344 200.949219 231.25 C 201.449219 231.351562 201.9375 231.5 202.410156 231.695312 C 202.882812 231.890625 203.328125 232.128906 203.753906 232.414062 C 204.179688 232.695312 204.574219 233.019531 204.933594 233.382812 C 205.296875 233.742188 205.617188 234.136719 205.902344 234.558594 C 206.183594 234.984375 206.425781 235.433594 206.621094 235.90625 C 206.816406 236.378906 206.964844 236.863281 207.0625 237.363281 C 207.164062 237.867188 207.214844 238.371094 207.214844 238.882812 Z M 207.214844 238.882812 "/><g clip-rule="nonzero" clip-path="url(#f6b41556e6)"><path style=" stroke:none;fill-rule:nonzero;fill:#ffffff;fill-opacity:1;" d="M 187.488281 8.640625 C 236.875 8.640625 281.605469 28.664062 313.96875 61.03125 C 346.335938 93.394531 366.355469 138.097656 366.355469 187.488281 C 366.355469 236.875 346.335938 281.605469 313.96875 313.96875 C 281.605469 346.335938 236.875 366.355469 187.488281 366.355469 C 138.097656 366.355469 93.394531 346.335938 61.03125 313.96875 C 28.664062 281.605469 8.640625 236.875 8.640625 187.488281 C 8.640625 138.097656 28.664062 93.394531 61.03125 61.03125 C 93.394531 28.664062 138.097656 8.640625 187.488281 8.640625 Z M 303.460938 71.535156 C 273.773438 41.847656 232.789062 23.484375 187.488281 23.484375 C 142.210938 23.484375 101.199219 41.847656 71.535156 71.535156 C 41.847656 101.199219 23.484375 142.210938 23.484375 187.488281 C 23.484375 232.789062 41.847656 273.773438 71.535156 303.460938 C 101.199219 333.152344 142.210938 351.488281 187.488281 351.488281 C 232.789062 351.488281 273.773438 333.152344 303.460938 303.460938 C 333.152344 273.773438 351.488281 232.789062 351.488281 187.488281 C 351.488281 142.210938 333.152344 101.199219 303.460938 71.535156 Z M 303.460938 71.535156 "/></g></g></svg>